<mxfile host="app.diagrams.net" modified="2024-04-05T09:18:07.414Z" agent="Mozilla/5.0 (Windows NT 10.0; Win64; x64; rv:124.0) Gecko/20100101 Firefox/124.0" etag="5asjrQzMlYVjJsYtdaat" version="24.2.2" type="onedrive">
  <diagram name="Page-1" id="2YBvvXClWsGukQMizWep">
    <mxGraphModel grid="1" page="1" gridSize="10" guides="1" tooltips="1" connect="1" arrows="1" fold="1" pageScale="1" pageWidth="850" pageHeight="1100" math="0" shadow="0">
      <root>
        <mxCell id="0" />
        <mxCell id="1" parent="0" />
        <mxCell id="YXeKWQk5nC72qx_1gx44-1" value="&lt;font style=&quot;font-size: 12px;&quot;&gt;user interacts&lt;/font&gt;" style="html=1;verticalAlign=bottom;endArrow=block;edgeStyle=elbowEdgeStyle;elbow=vertical;curved=0;rounded=0;" edge="1" parent="1">
          <mxGeometry relative="1" as="geometry">
            <mxPoint x="150.02380952380963" y="130" as="sourcePoint" />
            <Array as="points">
              <mxPoint x="165.5" y="130" />
              <mxPoint x="455.88" y="140" />
            </Array>
            <mxPoint x="285" y="130" as="targetPoint" />
          </mxGeometry>
        </mxCell>
        <mxCell id="YXeKWQk5nC72qx_1gx44-6" value="&lt;font style=&quot;font-size: 12px;&quot;&gt;MenuChoice()&lt;/font&gt;" style="html=1;verticalAlign=bottom;endArrow=block;edgeStyle=elbowEdgeStyle;elbow=vertical;curved=0;rounded=0;" edge="1" parent="1" target="aM9ryv3xv72pqoxQDRHE-6">
          <mxGeometry x="-0.0323" relative="1" as="geometry">
            <mxPoint x="295" y="160" as="sourcePoint" />
            <Array as="points">
              <mxPoint x="330" y="160" />
              <mxPoint x="550.88" y="130" />
            </Array>
            <mxPoint x="450" y="160" as="targetPoint" />
            <mxPoint as="offset" />
          </mxGeometry>
        </mxCell>
        <mxCell id="YXeKWQk5nC72qx_1gx44-10" value="" style="shape=umlLifeline;perimeter=lifelinePerimeter;whiteSpace=wrap;html=1;container=1;dropTarget=0;collapsible=0;recursiveResize=0;outlineConnect=0;portConstraint=eastwest;newEdgeStyle={&quot;curved&quot;:0,&quot;rounded&quot;:0};participant=umlActor;strokeColor=default;align=center;verticalAlign=middle;fontFamily=Helvetica;fontSize=12;fontColor=default;fillColor=default;" vertex="1" parent="1">
          <mxGeometry x="140" y="40" width="20" height="430" as="geometry" />
        </mxCell>
        <mxCell id="YXeKWQk5nC72qx_1gx44-11" value="Staff" style="text;html=1;align=center;verticalAlign=middle;resizable=0;points=[];autosize=1;strokeColor=none;fillColor=none;fontFamily=Helvetica;fontSize=12;fontColor=default;" vertex="1" parent="1">
          <mxGeometry x="125" y="10" width="50" height="30" as="geometry" />
        </mxCell>
        <mxCell id="YXeKWQk5nC72qx_1gx44-12" value="&lt;font style=&quot;font-size: 12px;&quot;&gt;user enters input&lt;/font&gt;" style="html=1;verticalAlign=bottom;endArrow=block;edgeStyle=elbowEdgeStyle;elbow=vertical;curved=0;rounded=0;" edge="1" parent="1">
          <mxGeometry relative="1" as="geometry">
            <mxPoint x="150.02380952380963" y="290" as="sourcePoint" />
            <Array as="points">
              <mxPoint x="210" y="290" />
              <mxPoint x="445.88" y="300" />
            </Array>
            <mxPoint x="285" y="290" as="targetPoint" />
          </mxGeometry>
        </mxCell>
        <mxCell id="YXeKWQk5nC72qx_1gx44-13" value="&lt;div align=&quot;right&quot;&gt;Terminal&lt;/div&gt;" style="shape=umlLifeline;perimeter=lifelinePerimeter;whiteSpace=wrap;html=1;container=1;dropTarget=0;collapsible=0;recursiveResize=0;outlineConnect=0;portConstraint=eastwest;newEdgeStyle={&quot;curved&quot;:0,&quot;rounded&quot;:0};participant=umlBoundary;strokeColor=default;align=right;verticalAlign=middle;fontFamily=Helvetica;fontSize=12;fontColor=default;fillColor=default;" vertex="1" parent="1">
          <mxGeometry x="260" y="40" width="60" height="430" as="geometry" />
        </mxCell>
        <mxCell id="64mDt4S0of5XED2l5hRp-4" value="" style="html=1;points=[];perimeter=orthogonalPerimeter;outlineConnect=0;targetShapes=umlLifeline;portConstraint=eastwest;newEdgeStyle={&quot;edgeStyle&quot;:&quot;elbowEdgeStyle&quot;,&quot;elbow&quot;:&quot;vertical&quot;,&quot;curved&quot;:0,&quot;rounded&quot;:0};" vertex="1" parent="YXeKWQk5nC72qx_1gx44-13">
          <mxGeometry x="25" y="80" width="10" height="180" as="geometry" />
        </mxCell>
        <mxCell id="YXeKWQk5nC72qx_1gx44-20" value="display menu" style="html=1;align=left;spacingLeft=2;endArrow=block;rounded=0;edgeStyle=orthogonalEdgeStyle;curved=0;rounded=0;fontFamily=Helvetica;fontSize=12;fontColor=default;" edge="1" parent="YXeKWQk5nC72qx_1gx44-13" source="64mDt4S0of5XED2l5hRp-4" target="64mDt4S0of5XED2l5hRp-4">
          <mxGeometry relative="1" as="geometry">
            <mxPoint x="40" y="180" as="sourcePoint" />
            <Array as="points">
              <mxPoint x="70" y="160" />
              <mxPoint x="70" y="190" />
            </Array>
            <mxPoint x="40" y="210" as="targetPoint" />
          </mxGeometry>
        </mxCell>
        <mxCell id="YXeKWQk5nC72qx_1gx44-24" value="prompt user for input" style="html=1;align=left;spacingLeft=2;endArrow=block;rounded=0;edgeStyle=orthogonalEdgeStyle;curved=0;rounded=0;fontFamily=Helvetica;fontSize=12;fontColor=default;" edge="1" parent="YXeKWQk5nC72qx_1gx44-13" source="64mDt4S0of5XED2l5hRp-4" target="64mDt4S0of5XED2l5hRp-4">
          <mxGeometry relative="1" as="geometry">
            <mxPoint x="45" y="170" as="sourcePoint" />
            <Array as="points">
              <mxPoint x="70" y="200" />
              <mxPoint x="70" y="230" />
            </Array>
            <mxPoint x="45" y="200" as="targetPoint" />
          </mxGeometry>
        </mxCell>
        <mxCell id="YXeKWQk5nC72qx_1gx44-28" value="" style="html=1;points=[];perimeter=orthogonalPerimeter;outlineConnect=0;targetShapes=umlLifeline;portConstraint=eastwest;newEdgeStyle={&quot;edgeStyle&quot;:&quot;elbowEdgeStyle&quot;,&quot;elbow&quot;:&quot;vertical&quot;,&quot;curved&quot;:0,&quot;rounded&quot;:0};" vertex="1" parent="YXeKWQk5nC72qx_1gx44-13">
          <mxGeometry x="25" y="350" width="10" height="70" as="geometry" />
        </mxCell>
        <mxCell id="YXeKWQk5nC72qx_1gx44-14" value="Menu Catalog" style="shape=umlLifeline;perimeter=lifelinePerimeter;whiteSpace=wrap;html=1;container=1;dropTarget=0;collapsible=0;recursiveResize=0;outlineConnect=0;portConstraint=eastwest;newEdgeStyle={&quot;curved&quot;:0,&quot;rounded&quot;:0};participant=umlEntity;strokeColor=default;align=center;verticalAlign=middle;fontFamily=Helvetica;fontSize=12;fontColor=default;fillColor=default;" vertex="1" parent="1">
          <mxGeometry x="450" y="40" width="60" height="430" as="geometry" />
        </mxCell>
        <mxCell id="aM9ryv3xv72pqoxQDRHE-6" value="" style="html=1;points=[];perimeter=orthogonalPerimeter;outlineConnect=0;targetShapes=umlLifeline;portConstraint=eastwest;newEdgeStyle={&quot;edgeStyle&quot;:&quot;elbowEdgeStyle&quot;,&quot;elbow&quot;:&quot;vertical&quot;,&quot;curved&quot;:0,&quot;rounded&quot;:0};" vertex="1" parent="YXeKWQk5nC72qx_1gx44-14">
          <mxGeometry x="25" y="110" width="10" height="280" as="geometry" />
        </mxCell>
        <mxCell id="YXeKWQk5nC72qx_1gx44-22" value="&lt;font style=&quot;font-size: 12px;&quot;&gt;return user input&lt;/font&gt;" style="html=1;verticalAlign=bottom;endArrow=open;dashed=1;endSize=8;edgeStyle=elbowEdgeStyle;elbow=vertical;curved=0;rounded=0;" edge="1" parent="1" target="aM9ryv3xv72pqoxQDRHE-6">
          <mxGeometry relative="1" as="geometry">
            <mxPoint x="450" y="290" as="targetPoint" />
            <Array as="points">
              <mxPoint x="409.96000000000004" y="290" />
            </Array>
            <mxPoint x="295" y="290" as="sourcePoint" />
            <mxPoint as="offset" />
          </mxGeometry>
        </mxCell>
        <mxCell id="YXeKWQk5nC72qx_1gx44-26" value="&lt;font style=&quot;font-size: 12px;&quot;&gt;InitiateMenuChoice(int userChoice)&lt;/font&gt;" style="html=1;align=left;spacingLeft=2;endArrow=block;rounded=0;edgeStyle=orthogonalEdgeStyle;curved=0;rounded=0;fontFamily=Helvetica;fontSize=12;fontColor=default;" edge="1" parent="1">
          <mxGeometry x="-0.1" relative="1" as="geometry">
            <mxPoint x="485" y="390" as="sourcePoint" />
            <Array as="points">
              <mxPoint x="520" y="390" />
              <mxPoint x="520" y="420" />
            </Array>
            <mxPoint x="485" y="420" as="targetPoint" />
            <mxPoint as="offset" />
          </mxGeometry>
        </mxCell>
        <mxCell id="YXeKWQk5nC72qx_1gx44-23" value="ParseUserInputToInt(string userInput)" style="html=1;align=left;spacingLeft=2;endArrow=block;rounded=0;edgeStyle=orthogonalEdgeStyle;curved=0;rounded=0;fontFamily=Helvetica;fontSize=12;fontColor=default;" edge="1" parent="1">
          <mxGeometry x="-0.1" relative="1" as="geometry">
            <mxPoint x="485" y="340" as="sourcePoint" />
            <Array as="points">
              <mxPoint x="520" y="340" />
              <mxPoint x="520" y="370" />
            </Array>
            <mxPoint x="485" y="370" as="targetPoint" />
            <mxPoint as="offset" />
          </mxGeometry>
        </mxCell>
        <mxCell id="YXeKWQk5nC72qx_1gx44-29" value="&lt;font style=&quot;font-size: 12px;&quot;&gt;send menu string&lt;/font&gt;" style="html=1;verticalAlign=bottom;endArrow=open;dashed=1;endSize=8;edgeStyle=elbowEdgeStyle;elbow=vertical;curved=0;rounded=0;" edge="1" parent="1">
          <mxGeometry relative="1" as="geometry">
            <mxPoint x="295" y="180" as="targetPoint" />
            <Array as="points">
              <mxPoint x="434.96000000000004" y="180" />
            </Array>
            <mxPoint x="475" y="180" as="sourcePoint" />
            <mxPoint as="offset" />
          </mxGeometry>
        </mxCell>
        <mxCell id="evpc4oVL6e_J2Z27oVvM-1" value="alt" style="shape=umlFrame;whiteSpace=wrap;html=1;pointerEvents=0;strokeColor=default;align=center;verticalAlign=middle;fontFamily=Helvetica;fontSize=12;fontColor=default;fillColor=default;" vertex="1" parent="1">
          <mxGeometry x="410" y="380" width="310" height="100" as="geometry" />
        </mxCell>
        <mxCell id="YXeKWQk5nC72qx_1gx44-27" value="CheckUserInput(string? userInput)" style="html=1;align=left;spacingLeft=2;endArrow=block;rounded=0;edgeStyle=orthogonalEdgeStyle;curved=0;rounded=0;fontFamily=Helvetica;fontSize=12;fontColor=default;" edge="1" parent="1">
          <mxGeometry x="-0.1" relative="1" as="geometry">
            <mxPoint x="485" y="290" as="sourcePoint" />
            <Array as="points">
              <mxPoint x="520" y="290" />
              <mxPoint x="520" y="320" />
            </Array>
            <mxPoint x="485" y="320" as="targetPoint" />
            <mxPoint as="offset" />
          </mxGeometry>
        </mxCell>
      </root>
    </mxGraphModel>
  </diagram>
</mxfile>
